<?xml version="1.0" standalone="no"?>
<!DOCTYPE svg PUBLIC "-//W3C//DTD SVG 20010904//EN"
 "http://www.w3.org/TR/2001/REC-SVG-20010904/DTD/svg10.dtd">
<svg version="1.0" xmlns="http://www.w3.org/2000/svg"
 width="396.000000pt" height="396.000000pt" viewBox="0 0 396.000000 396.000000"
 preserveAspectRatio="xMidYMid meet">
<metadata>
Created by potrace 1.14, written by Peter Selinger 2001-2017
</metadata>
<g transform="translate(0.000000,396.000000) scale(0.100000,-0.100000)"
fill="#000000" stroke="none">
<path d="M609 3905 c-2 -1 -26 -6 -54 -10 -27 -3 -87 -24 -134 -46 -149 -69
-262 -208 -305 -374 -14 -53 -16 -205 -16 -1264 0 -1326 -2 -1267 63 -1400 40
-83 149 -194 232 -237 134 -70 83 -67 1075 -69 492 -1 909 3 927 7 37 10 62
63 44 96 -26 49 17 47 -950 48 -837 1 -910 2 -956 18 -56 20 -138 72 -172 108
-47 51 -91 139 -103 206 -8 49 -10 396 -8 1263 l3 1195 38 76 c57 115 161 199
282 226 22 5 554 8 1205 8 l1165 -2 59 -21 c114 -43 203 -131 249 -247 20 -50
20 -73 22 -844 2 -636 5 -798 15 -818 25 -46 103 -43 127 6 19 38 17 1547 -3
1632 -49 216 -221 387 -434 432 -53 11 -276 14 -1216 14 -634 1 -1153 -1
-1155 -3z"/>
<path d="M2628 3165 c-1 -1 -22 -5 -46 -9 -38 -5 -915 -150 -967 -160 -11 -2
-53 -9 -93 -16 -59 -10 -76 -17 -89 -37 -15 -22 -16 -90 -16 -671 1 -612 0
-649 -18 -691 -37 -86 -174 -179 -269 -182 -79 -3 -90 0 -127 35 -29 26 -37
42 -39 72 -3 76 69 170 171 221 52 26 98 36 160 35 67 -2 98 22 93 74 -4 55
-37 75 -120 75 -219 0 -445 -191 -453 -384 -7 -161 115 -279 290 -279 190 0
388 136 446 307 10 32 13 166 14 657 0 339 2 619 5 621 4 4 712 126 835 143
17 3 52 9 78 14 26 6 56 10 65 10 16 0 17 -40 17 -604 l0 -604 -34 -48 c-80
-117 -233 -182 -342 -145 -98 34 -97 168 2 257 70 63 152 96 244 98 47 1 69 6
84 20 30 27 28 76 -4 106 -21 20 -35 23 -93 22 -176 -2 -360 -118 -430 -270
-38 -83 -37 -177 2 -249 84 -152 279 -188 477 -88 106 54 208 169 232 263 9
37 12 207 12 705 0 647 -1 657 -21 677 -18 18 -57 33 -66 25z"/>
<path d="M3066 1519 c-46 -7 -91 -28 -316 -148 -52 -28 -120 -63 -149 -78 -30
-16 -83 -55 -117 -88 -53 -52 -63 -68 -69 -107 -13 -89 36 -163 129 -194 39
-13 79 -16 181 -14 179 4 170 5 206 -21 23 -16 51 -24 93 -27 59 -4 63 -6 119
-60 51 -50 57 -61 57 -97 0 -55 16 -109 39 -129 12 -11 17 -27 15 -49 -2 -18
-4 -87 -4 -155 -2 -178 27 -249 118 -288 77 -32 150 -4 225 88 48 59 265 469
281 530 24 97 -10 212 -87 288 -45 46 -128 87 -176 88 -28 1 -45 13 -110 79
-70 71 -78 83 -84 127 -21 155 -193 279 -351 255z m132 -176 c43 -32 72 -82
72 -125 0 -55 10 -71 119 -181 107 -110 133 -127 189 -127 76 0 152 -78 152
-156 0 -46 -6 -62 -48 -139 -15 -27 -58 -108 -96 -180 -38 -72 -76 -141 -84
-155 -21 -34 -64 -80 -74 -80 -28 0 -34 86 -24 325 3 64 -6 92 -36 113 -20 14
-23 47 -9 85 14 36 -2 59 -117 174 -98 97 -135 120 -164 102 -23 -15 -66 -10
-80 9 -22 31 -50 39 -123 36 -249 -13 -310 -8 -310 26 0 24 79 75 295 191 197
105 207 109 258 106 33 -2 63 -11 80 -24z"/>
<path d="M2982 1287 c-28 -32 -32 -51 -16 -82 10 -19 11 -32 4 -45 -37 -69 31
-140 101 -104 18 9 29 10 36 3 6 -6 25 -11 43 -11 56 -2 88 60 59 114 -8 14
-8 23 0 31 21 21 13 74 -15 96 -31 25 -61 27 -91 6 -14 -10 -23 -11 -25 -4 -2
6 -20 12 -40 14 -27 2 -41 -2 -56 -18z"/>
<path d="M3458 841 c-18 -15 -22 -29 -23 -95 -3 -110 9 -123 114 -123 109 0
118 9 119 115 0 105 -10 116 -114 118 -58 2 -79 -2 -96 -15z"/>
</g>
</svg>
